<?xml version="1.0" standalone="no"?>
<!DOCTYPE svg PUBLIC "-//W3C//DTD SVG 20010904//EN"
 "http://www.w3.org/TR/2001/REC-SVG-20010904/DTD/svg10.dtd">
<svg version="1.0" xmlns="http://www.w3.org/2000/svg"
 width="404.000000pt" height="404.000000pt" viewBox="0 0 404.000000 404.000000"
 preserveAspectRatio="xMidYMid meet">
<metadata>
Created by potrace 1.11, written by Peter Selinger 2001-2013
</metadata>
<g transform="translate(0.000000,404.000000) scale(0.100000,-0.100000)"
fill="#000000" stroke="none">
<path d="M166 3303 c-101 -30 -166 -98 -166 -170 0 -60 47 -114 362 -423 287
-280 339 -327 338 -302 -1 4 -104 156 -229 337 l-229 330 1771 3 c974 1 1772
0 1774 -2 3 -2 -97 -151 -221 -331 -124 -179 -226 -330 -226 -336 0 -5 5 -9
10 -9 6 0 161 150 345 333 292 290 335 337 341 369 13 78 -22 130 -124 180
l-67 33 -1815 2 c-1602 2 -1821 0 -1864 -14z"/>
<path d="M1970 2830 l0 -120 340 0 340 0 0 -70 0 -70 -110 0 -110 0 0 -50 0
-50 110 0 110 0 0 45 0 45 230 0 230 0 0 75 0 75 -230 0 -230 0 0 120 0 120
-340 0 -340 0 0 -120z"/>
<path d="M1648 2285 c-82 -27 -124 -104 -99 -185 15 -51 46 -72 161 -107 71
-22 96 -34 99 -48 9 -50 -78 -59 -163 -16 l-57 28 -34 -41 c-31 -38 -33 -42
-18 -58 20 -22 104 -54 165 -63 70 -11 154 11 196 50 32 28 36 39 40 92 4 53
1 62 -23 91 -31 36 -65 53 -157 77 -70 18 -92 33 -82 58 13 35 88 34 154 -2
l34 -18 26 36 c45 62 46 60 -13 87 -70 31 -165 39 -229 19z"/>
<path d="M2167 2284 c-94 -29 -167 -134 -167 -239 0 -139 116 -255 255 -255
75 0 205 66 205 104 0 7 -20 26 -45 44 l-45 32 -21 -21 c-41 -41 -102 -50
-149 -23 -82 49 -81 195 2 240 46 26 122 11 150 -30 8 -12 38 3 83 40 l30 25
-42 38 c-66 59 -157 75 -256 45z"/>
<path d="M570 2045 l0 -245 65 0 65 0 0 75 0 75 35 0 c32 0 38 -6 85 -75 l51
-75 75 0 75 0 -55 81 c-31 44 -56 84 -56 88 0 4 14 15 30 24 83 50 86 193 6
259 -35 28 -98 38 -240 38 l-136 0 0 -245z m270 122 c20 -10 25 -20 25 -52 0
-50 -27 -66 -105 -63 l-55 3 -3 49 c-2 27 -1 55 2 62 7 18 101 19 136 1z"/>
<path d="M1080 2045 l0 -245 200 0 200 0 0 55 0 55 -136 0 -135 0 3 43 3 42
118 3 117 3 0 49 0 50 -120 0 -120 0 0 40 0 40 130 0 130 0 0 55 0 55 -195 0
-195 0 0 -245z"/>
<path d="M2530 2123 c1 -220 14 -259 105 -306 31 -16 58 -21 120 -21 62 0 89
5 120 21 92 48 105 86 105 303 l0 170 -65 0 -65 0 0 -161 0 -161 -29 -29 c-38
-37 -88 -39 -128 -5 l-28 24 -3 166 -3 166 -65 0 -64 0 0 -167z"/>
<path d="M3070 2045 l0 -245 200 0 200 0 0 55 0 55 -135 0 -135 0 0 45 0 45
120 0 120 0 0 50 0 50 -120 0 -120 0 0 40 0 40 130 0 130 0 0 55 0 55 -195 0
-195 0 0 -245z"/>
<path d="M493 1441 c-341 -325 -469 -461 -483 -510 -22 -82 24 -147 137 -192
l58 -24 1830 0 c2011 0 1872 -4 1946 62 62 56 71 119 29 203 -19 37 -632 640
-651 640 -6 0 -9 -6 -6 -13 3 -8 105 -159 227 -336 122 -177 220 -324 218
-327 -3 -2 -804 -3 -1781 -2 l-1775 3 224 325 c124 179 230 333 235 343 25 44
-24 4 -208 -172z"/>
<path d="M882 1558 c-16 -24 -32 -49 -36 -55 -5 -10 14 -13 83 -13 l91 0 25
50 c14 27 25 52 25 55 0 3 -36 5 -80 5 l-79 0 -29 -42z"/>
<path d="M1110 1553 c-17 -26 -30 -51 -30 -55 0 -4 35 -8 78 -8 l77 0 18 43
c26 65 25 67 -48 67 l-65 0 -30 -47z"/>
<path d="M1325 1570 c-8 -16 -20 -41 -25 -55 l-10 -26 82 3 81 3 13 45 c8 25
14 48 14 53 0 4 -31 7 -70 7 -67 0 -70 -1 -85 -30z"/>
<path d="M1535 1588 c-3 -7 -11 -32 -19 -55 l-15 -43 83 0 84 0 6 31 c15 77
13 79 -64 79 -47 0 -72 -4 -75 -12z"/>
<path d="M1736 1583 c-3 -10 -8 -35 -12 -55 l-6 -38 80 0 81 0 6 44 c4 25 4
49 0 55 -3 6 -37 11 -75 11 -57 0 -70 -3 -74 -17z"/>
<path d="M1940 1576 c0 -13 -3 -38 -6 -55 l-6 -31 87 0 88 0 -7 38 c-3 20 -6
45 -6 55 0 15 -10 17 -75 17 -72 0 -75 -1 -75 -24z"/>
<path d="M2145 1590 c-3 -6 -3 -30 1 -55 l6 -45 80 0 80 0 -7 48 c-4 26 -9 50
-12 55 -7 11 -141 9 -148 -3z"/>
<path d="M2354 1548 c4 -29 9 -54 10 -56 2 -1 39 -2 83 0 l80 3 -16 50 -16 50
-74 3 -74 3 7 -53z"/>
<path d="M2550 1592 c0 -5 7 -29 16 -55 l16 -47 79 0 c43 0 79 3 78 8 0 4 -10
27 -22 52 l-22 45 -73 3 c-39 2 -72 -1 -72 -6z"/>
<path d="M2760 1588 c0 -7 8 -32 18 -55 l17 -43 78 0 c42 0 77 3 77 6 0 4 -12
28 -27 55 l-26 49 -69 0 c-47 0 -68 -4 -68 -12z"/>
<path d="M2960 1594 c0 -4 12 -28 27 -55 l26 -49 94 0 c73 0 93 3 87 13 -4 6
-20 31 -36 55 l-29 42 -84 0 c-47 0 -85 -3 -85 -6z"/>
<path d="M745 1353 c-19 -27 -35 -51 -35 -55 0 -5 72 -8 160 -8 l159 0 21 46
c11 26 20 50 20 55 0 5 -65 9 -145 9 l-145 0 -35 -47z"/>
<path d="M1115 1350 c-14 -27 -25 -52 -25 -55 0 -3 40 -5 89 -5 l89 0 16 40
c27 68 26 70 -64 70 l-80 0 -25 -50z"/>
<path d="M1343 1345 l-21 -55 94 0 93 0 10 38 c21 72 21 72 -73 72 l-83 0 -20
-55z"/>
<path d="M1587 1393 c-2 -5 -7 -21 -11 -38 -4 -16 -9 -38 -12 -47 -5 -16 4
-18 89 -18 l95 0 6 31 c15 79 15 79 -78 79 -47 0 -87 -3 -89 -7z"/>
<path d="M1817 1393 c-3 -5 -8 -29 -11 -55 l-7 -48 95 0 96 0 0 55 0 55 -84 0
c-47 0 -87 -3 -89 -7z"/>
<path d="M2040 1345 l0 -55 96 0 95 0 -7 48 c-3 26 -8 50 -11 55 -2 4 -42 7
-89 7 l-84 0 0 -55z"/>
<path d="M2270 1377 c0 -14 3 -39 6 -56 l7 -31 92 0 93 0 -12 53 -11 52 -88 3
c-86 3 -87 3 -87 -21z"/>
<path d="M2500 1383 c0 -10 5 -35 11 -55 l10 -38 93 0 94 0 -21 55 -20 55 -83
0 c-73 0 -84 -2 -84 -17z"/>
<path d="M2730 1385 c0 -8 7 -33 16 -55 l16 -40 89 0 c49 0 89 2 89 5 0 3 -11
28 -25 55 l-25 50 -80 0 c-64 0 -80 -3 -80 -15z"/>
<path d="M2960 1391 c0 -5 9 -30 20 -55 l19 -46 166 0 c91 0 165 3 165 8 0 4
-16 28 -35 55 l-35 47 -150 0 c-84 0 -150 -4 -150 -9z"/>
<path d="M606 1145 l-36 -55 115 0 115 0 25 50 c14 27 25 52 25 55 0 3 -47 5
-104 5 l-103 0 -37 -55z"/>
<path d="M890 1153 c-17 -26 -30 -51 -30 -55 0 -4 45 -8 100 -8 l101 0 19 43
c31 67 31 67 -70 67 l-90 0 -30 -47z"/>
<path d="M1162 1188 c-9 -12 -42 -85 -42 -94 0 -2 47 -4 104 -4 l105 0 14 48
c7 26 12 50 10 55 -7 13 -180 8 -191 -5z"/>
<path d="M1406 1168 c-8 -18 -17 -43 -20 -55 l-7 -23 634 0 635 0 -14 45 c-7
25 -16 50 -19 55 -4 6 -230 10 -601 10 l-595 0 -13 -32z"/>
<path d="M2670 1192 c0 -5 7 -29 16 -55 l16 -47 104 0 104 0 -17 43 c-9 23
-21 48 -26 55 -11 14 -197 18 -197 4z"/>
<path d="M2930 1188 c0 -7 8 -32 18 -55 l17 -43 103 0 c56 0 102 3 101 8 0 4
-13 27 -28 52 l-27 45 -92 3 c-69 2 -92 0 -92 -10z"/>
<path d="M3180 1191 c0 -5 12 -29 26 -55 l26 -46 119 0 119 0 -36 55 -37 55
-108 0 c-60 0 -109 -4 -109 -9z"/>
</g>
</svg>
